<?xml version="1.0" standalone="no"?><!DOCTYPE svg PUBLIC "-//W3C//DTD SVG 1.1//EN" "http://www.w3.org/Graphics/SVG/1.1/DTD/svg11.dtd"><svg t="1585396009148" class="icon" viewBox="0 0 1127 1024" version="1.1" xmlns="http://www.w3.org/2000/svg" p-id="814" xmlns:xlink="http://www.w3.org/1999/xlink" width="220.1171875" height="200"><defs><style type="text/css"></style></defs><path d="M1112.625101 327.433164v-1.681716a22.198653 22.198653 0 0 0-2.01806-6.726864l-95.185135-238.803696A119.738191 119.738191 0 0 0 896.020059 0.171199H230.060457a115.702072 115.702072 0 0 0-115.365729 77.695287l-100.90297 243.176157v5.717835A227.368026 227.368026 0 0 0 0.001686 397.056214a224.340936 224.340936 0 0 0 118.056475 198.442507 217.614072 217.614072 0 0 0 104.602745 24.553056 224.004593 224.004593 0 0 0 170.189676-80.049689 216.941385 216.941385 0 0 0 336.343233 0A227.368026 227.368026 0 0 0 1009.031385 594.153348a226.022653 226.022653 0 0 0 105.275432-266.720184z m-235.440263 39.352159H228.715084a40.697531 40.697531 0 0 1 0-81.395063h648.13341a41.033874 41.033874 0 0 1 0 81.731406z m162.790124 326.925622a40.697531 40.697531 0 0 0-40.361188-41.033874 45.74268 45.74268 0 0 0-11.772013 2.354402 246.875933 246.875933 0 0 1-97.203194 16.817162 243.848844 243.848844 0 0 1-159.426693-56.16932 262.684065 262.684065 0 0 1-168.171616 62.896185 253.602798 253.602798 0 0 1-168.171617-56.505663 255.620857 255.620857 0 0 1-170.189675 59.869095 247.884963 247.884963 0 0 1-96.194165-20.516937h-3.027089l-4.708805-1.681716a41.706561 41.706561 0 0 0-9.081268 0 40.697531 40.697531 0 0 0-40.361188 40.697531v218.959445a103.930059 103.930059 0 0 0 103.593716 104.602745h761.144736a104.602745 104.602745 0 0 0 103.257373-104.602745z" fill="#d4237a" p-id="815"></path></svg>